<?xml version="1.0" encoding="utf-8"?>

<svg version="1.1" id="Layer_1" xmlns="http://www.w3.org/2000/svg" xmlns:xlink="http://www.w3.org/1999/xlink" x="0px" y="0px"
	 viewBox="0 0 109 109" style="enable-background:new 0 0 109 109;" xml:space="preserve">
<style type="text/css">
	.st0{fill:#FF99FF;}
	.st1{fill:#FFFFFF;}
</style>
<g>
	<path class="st0" d="M103.45,88.32L86.54,71.42l9.87-9.87c1.82-1.82,0.99-4.94-1.5-5.6l-50.1-13.42c-2.49-0.67-4.77,1.61-4.1,4.1
		l13.42,50.1c0.67,2.49,3.78,3.32,5.6,1.5l10.38-10.38l16.91,16.91c1.85,1.85,4.85,1.85,6.7,0l9.73-9.73
		C105.3,93.17,105.3,90.17,103.45,88.32z"/>
	<path class="st1" d="M32.4,59.27L20.48,71.19c-1.16,1.16-3.04,1.16-4.2,0h0c-1.16-1.16-1.16-3.04,0-4.2L28.2,55.07
		c1.16-1.16,3.04-1.16,4.2,0l0,0C33.56,56.23,33.56,58.11,32.4,59.27z"/>
	<path class="st1" d="M69.82,21.85L57.9,33.77c-1.16,1.16-3.04,1.16-4.2,0l0,0c-1.16-1.16-1.16-3.04,0-4.2l11.92-11.92
		c1.16-1.16,3.04-1.16,4.2,0l0,0C70.98,18.81,70.98,20.69,69.82,21.85z"/>
	<path class="st1" d="M28.09,33.72L16.17,21.8c-1.16-1.16-1.16-3.04,0-4.2l0,0c1.16-1.16,3.04-1.16,4.2,0l11.92,11.92
		c1.16,1.16,1.16,3.04,0,4.2l0,0C31.13,34.88,29.25,34.88,28.09,33.72z"/>
	<path class="st1" d="M39.97,26.22V9.36c0-1.64,1.33-2.97,2.97-2.97h0c1.64,0,2.97,1.33,2.97,2.97v16.85c0,1.64-1.33,2.97-2.97,2.97
		h0C41.3,29.19,39.97,27.86,39.97,26.22z"/>
	<path class="st1" d="M24.53,47.47H7.67c-1.64,0-2.97-1.33-2.97-2.97v0c0-1.64,1.33-2.97,2.97-2.97h16.85
		c1.64,0,2.97,1.33,2.97,2.97v0C27.49,46.14,26.17,47.47,24.53,47.47z"/>
</g>
</svg>
