<svg xmlns="http://www.w3.org/2000/svg" width="14.19" height="25" viewBox="0 0 14.19 25"><defs><style>.a{fill:#fda4ff;}</style></defs><path class="a" d="M9.265,25h-4a1.214,1.214,0,0,1-1.213-1.213v-9.03H1.713A1.214,1.214,0,0,1,.5,13.544V9.675A1.214,1.214,0,0,1,1.713,8.462H4.048V6.525A6.6,6.6,0,0,1,5.793,1.8,6.283,6.283,0,0,1,10.426,0l3.053,0A1.214,1.214,0,0,1,14.69,1.218V4.81a1.214,1.214,0,0,1-1.212,1.213H11.421c-.627,0-.787.126-.821.164-.056.064-.123.245-.123.743V8.462h2.845a1.233,1.233,0,0,1,.6.152,1.217,1.217,0,0,1,.624,1.061l0,3.869a1.214,1.214,0,0,1-1.213,1.212H10.478v9.03A1.214,1.214,0,0,1,9.265,25ZM5.514,23.534h3.5V14.1a.811.811,0,0,1,.81-.81H13.08V9.928H9.821a.81.81,0,0,1-.809-.81V6.931A2.5,2.5,0,0,1,9.5,5.218a2.484,2.484,0,0,1,1.919-.66h1.8V1.47l-2.8,0c-3.028,0-4.91,1.939-4.91,5.059V9.118a.811.811,0,0,1-.809.81H1.966v3.363H4.7a.81.81,0,0,1,.809.81ZM13.476,1.471h0Zm0,0" transform="translate(-0.5)"/></svg>