<?xml version="1.0" encoding="utf-8"?>
<svg version="1.1" id="Layer_1" xmlns="http://www.w3.org/2000/svg" xmlns:xlink="http://www.w3.org/1999/xlink" x="0px" y="0px"
	 viewBox="0 0 205.08 186.34" style="enable-background:new 0 0 205.08 186.34;" xml:space="preserve">
<style type="text/css">
	.st0{fill:#999999;}
	.st1{fill:#CCCCCC;}
	.st2{fill:#FFFFFF;}
</style>
<g>
	<polygon class="st0" points="142.98,5.95 103.46,34.96 103.53,175.14 110.79,170.44 	"/>
	<polygon class="st1" points="64.12,5.79 103.46,34.93 103.58,177.55 94.45,162.75 	"/>
	<path class="st2" d="M197.97,26.61L157.65,6.45c-10.08-5.04-15.12,0-15.12,0l-30.24,156.24l-5.99,9.76c0,0-2.56,4.94-5.81-0.15
		l-5.75-9.78L64.5,6.29c0,0-5.04-5.04-15.12,0L9.06,26.45c0,0-5.04,5.04-5.04,10.08v35.28c0,0,0,10.08,5.04,15.12
		s80.64,85.68,80.64,85.68l6.33,6.33c0.07,0.07,0.13,0.17,0.2,0.24c1.69,1.53,5.56,8.28,14.32-0.11l6.77-6.29
		c0,0,75.6-80.64,80.64-85.68s5.04-15.12,5.04-15.12V36.69C203.01,31.65,197.97,26.61,197.97,26.61z"/>
</g>
</svg>
