<svg xmlns="http://www.w3.org/2000/svg" width="25" height="25" viewBox="0 0 25 25"><defs><style>.a{fill:#fda4ff;}</style></defs><g transform="translate(-0.449)"><path class="a" d="M25.386,7.35A9.134,9.134,0,0,0,24.8,4.317,6.4,6.4,0,0,0,21.146.659,9.162,9.162,0,0,0,18.112.078C16.774.015,16.349,0,12.954,0S9.134.015,7.8.073A9.141,9.141,0,0,0,4.767.654,6.1,6.1,0,0,0,2.55,2.1,6.155,6.155,0,0,0,1.109,4.312,9.158,9.158,0,0,0,.527,7.345C.464,8.683.449,9.108.449,12.5s.015,3.819.073,5.152A9.133,9.133,0,0,0,1.1,20.688a6.4,6.4,0,0,0,3.659,3.658,9.163,9.163,0,0,0,3.033.581c1.333.059,1.758.073,5.153.073s3.82-.015,5.153-.073a9.136,9.136,0,0,0,3.033-.581,6.4,6.4,0,0,0,3.659-3.658,9.164,9.164,0,0,0,.581-3.033c.059-1.333.073-1.758.073-5.152S25.444,8.683,25.386,7.35ZM23.134,17.557a6.851,6.851,0,0,1-.43,2.32,4.147,4.147,0,0,1-2.374,2.374,6.879,6.879,0,0,1-2.32.43c-1.319.059-1.714.073-5.051.073s-3.737-.014-5.051-.073a6.851,6.851,0,0,1-2.32-.43,3.848,3.848,0,0,1-1.436-.933,3.887,3.887,0,0,1-.933-1.436,6.877,6.877,0,0,1-.43-2.32c-.059-1.319-.073-1.714-.073-5.05s.015-3.736.073-5.05a6.848,6.848,0,0,1,.43-2.32,3.8,3.8,0,0,1,.938-1.436,3.882,3.882,0,0,1,1.436-.933,6.884,6.884,0,0,1,2.32-.43c1.319-.059,1.715-.073,5.051-.073s3.737.015,5.051.073a6.855,6.855,0,0,1,2.32.43,3.845,3.845,0,0,1,1.436.933A3.886,3.886,0,0,1,22.7,5.143a6.879,6.879,0,0,1,.43,2.32c.059,1.319.073,1.714.073,5.05S23.193,16.239,23.134,17.557Zm0,0" transform="translate(0 0)"/><path class="a" d="M131.368,124.5a6.417,6.417,0,1,0,6.419,6.417A6.419,6.419,0,0,0,131.368,124.5Zm0,10.579a4.162,4.162,0,1,1,4.164-4.162A4.164,4.164,0,0,1,131.368,135.079Zm0,0" transform="translate(-118.414 -118.414)"/><path class="a" d="M365.451,90.1a1.5,1.5,0,1,1-1.5-1.5A1.5,1.5,0,0,1,365.451,90.1Zm0,0" transform="translate(-344.319 -84.275)"/></g></svg>