<svg xmlns="http://www.w3.org/2000/svg" width="53" height="53" viewBox="0 0 53 53"><defs><style>.a{fill:#fff;}</style></defs><path class="a" d="M16.563,43.787H9.317V20.393h7.246Zm.723-30.848a4.244,4.244,0,1,0-4.242,4.245A4.244,4.244,0,0,0,17.286,12.939Zm26.4,17.977c0-6.28-1.327-10.938-8.663-10.938-3.525,0-5.891,1.763-6.858,3.6h-.007V20.393H21.117V43.787h7.039V32.172c0-3.042.774-5.989,4.545-5.989,3.719,0,3.84,3.479,3.84,6.182V43.787h7.143ZM53,46.789V6.211A6.218,6.218,0,0,0,46.789,0H6.211A6.218,6.218,0,0,0,0,6.211V46.789A6.218,6.218,0,0,0,6.211,53H46.789A6.218,6.218,0,0,0,53,46.789ZM46.789,4.141a2.073,2.073,0,0,1,2.07,2.07V46.789a2.073,2.073,0,0,1-2.07,2.07H6.211a2.073,2.073,0,0,1-2.07-2.07V6.211a2.073,2.073,0,0,1,2.07-2.07Zm0,0"/></svg>