<?xml version="1.0" encoding="utf-8"?>

<svg version="1.1" id="Layer_1" xmlns="http://www.w3.org/2000/svg" xmlns:xlink="http://www.w3.org/1999/xlink" x="0px" y="0px"
	 viewBox="0 0 535.85 257.69" style="enable-background:new 0 0 535.85 257.69;" xml:space="preserve">
<style type="text/css">
	.st0{fill:#CCCCCC;}
	.st1{fill:#999999;}
	.st2{fill:#FFFFFF;}
	.st3{opacity:0.52;fill:#003366;}
	.st4{fill:#003366;}
</style>
<g>
	<polygon class="st0" points="417.78,64.55 433.27,30.39 535.85,6.29 447.32,49.97 	"/>
	<polygon class="st1" points="454.17,58.84 447.32,49.97 417.78,64.55 454.75,59.52 	"/>
	<polygon class="st2" points="447.32,49.97 477.98,91.55 535.85,6.29 	"/>
	<polygon class="st2" points="535.56,6.19 412.56,3 433.27,30.39 	"/>
	<path class="st3" d="M453.44,19.97c2.66-1.48,5.09-2.11,7.64-0.79c4.19,2.16,5.44,7.37,2.84,11.5c-1.34,2.13-3.31,3.52-5.51,4.56
		c-3.21,1.52-6.5,2.86-9.75,4.29c-1.04,0.46-1.96,0.35-2.54-0.69c-2.18-3.88-4.5-7.7-6.42-11.71c-1.4-2.92-1.25-6,0.68-8.83
		c3.39-4.97,9.83-4.67,12.71,0.63C453.24,19.19,453.29,19.51,453.44,19.97z"/>
	<path class="st4" d="M467.88,15.87c2.66-1.48,5.09-2.11,7.64-0.79c4.19,2.16,5.44,7.37,2.84,11.5c-1.34,2.13-3.31,3.52-5.51,4.56
		c-3.21,1.52-6.5,2.86-9.75,4.29c-1.04,0.46-1.96,0.35-2.54-0.69c-2.18-3.88-4.5-7.7-6.42-11.71c-1.4-2.92-1.25-6,0.68-8.83
		c3.39-4.97,9.83-4.67,12.71,0.63C467.68,15.09,467.73,15.4,467.88,15.87z"/>
	<path class="st2" d="M387.93,83.4l-16.45,12.48c-1.31,0.99-3.17,0.73-4.16-0.57v0c-0.99-1.31-0.73-3.17,0.57-4.16l16.45-12.48
		c1.31-0.99,3.17-0.73,4.16,0.57v0C389.49,80.55,389.24,82.41,387.93,83.4z"/>
	<path class="st2" d="M329.92,120.58l-18.92,8.26c-1.5,0.66-3.25-0.03-3.91-1.53l0,0c-0.66-1.5,0.03-3.25,1.53-3.91l18.92-8.26
		c1.5-0.66,3.25,0.03,3.91,1.53v0C332.11,118.17,331.42,119.92,329.92,120.58z"/>
	<path class="st2" d="M263.86,141.5l-20.6,1.35c-1.64,0.11-3.05-1.13-3.16-2.77l0,0c-0.11-1.64,1.13-3.05,2.77-3.16l20.6-1.35
		c1.64-0.11,3.05,1.13,3.16,2.77v0C266.73,139.98,265.5,141.39,263.86,141.5z"/>
	<path class="st2" d="M196.42,149.88l-20.25,4.03c-1.61,0.32-3.17-0.72-3.49-2.33l0,0c-0.32-1.61,0.72-3.17,2.33-3.49l20.25-4.03
		c1.61-0.32,3.17,0.72,3.49,2.33l0,0C199.07,148,198.03,149.56,196.42,149.88z"/>
	<path class="st2" d="M129.84,166.79l-19.31,7.29c-1.53,0.58-3.25-0.19-3.82-1.73h0c-0.58-1.53,0.19-3.25,1.73-3.82l19.31-7.29
		c1.53-0.58,3.25,0.19,3.82,1.73v0C132.15,164.5,131.38,166.21,129.84,166.79z"/>
	<path class="st2" d="M68.92,194.61L52.3,206.85c-1.32,0.97-3.18,0.69-4.15-0.63l0,0c-0.97-1.32-0.69-3.18,0.63-4.15l16.62-12.24
		c1.32-0.97,3.18-0.69,4.15,0.63l0,0C70.52,191.78,70.24,193.63,68.92,194.61z"/>
	<path class="st2" d="M18.66,238.98L5.22,254.65c-1.07,1.24-2.94,1.39-4.18,0.32l0,0c-1.24-1.07-1.39-2.94-0.32-4.18l13.44-15.67
		c1.07-1.24,2.94-1.39,4.18-0.32h0C19.58,235.87,19.73,237.74,18.66,238.98z"/>
</g>
</svg>
