<svg xmlns="http://www.w3.org/2000/svg" width="30.281" height="25" viewBox="0 0 30.281 25"><defs><style>.a{fill:#fda4ff;}</style></defs><path class="a" d="M11.522,25C6.468,25,2.474,24.116.563,22.577l-.037-.03-.034-.034a1.554,1.554,0,0,1-.408-1.634L.1,20.831a1.583,1.583,0,0,1,1.444-.994A13.049,13.049,0,0,0,5,19.361a6.549,6.549,0,0,1-3.451-3.988,1.414,1.414,0,0,1,.493-1.648,1.443,1.443,0,0,1,.43-.22A9.55,9.55,0,0,1,.511,10L.5,9.956l-.008-.04a1.472,1.472,0,0,1,.682-1.58,1.466,1.466,0,0,1,.7-.2,7.384,7.384,0,0,1-.557-1.7,7.12,7.12,0,0,1,.758-4.744l.188-.376a1.047,1.047,0,0,1,1.677-.272l.342.343a16.146,16.146,0,0,0,9.31,5.1,7.417,7.417,0,0,1,2-4.276A7.025,7.025,0,0,1,20.605,0h.012a10.047,10.047,0,0,1,4.146,1.35c.892-.292,1.967-.744,3.083-1.222a1.408,1.408,0,0,1,1.576.277,1.384,1.384,0,0,1,.3,1.521q-.122.339-.275.664a1.41,1.41,0,0,1,.411.283A1.523,1.523,0,0,1,30.236,4.3l-.014.048a5.809,5.809,0,0,1-2.334,3.2C27.707,17.2,20.435,25,11.522,25ZM2.266,21.588c1.8,1.019,5.233,1.635,9.256,1.635A13.865,13.865,0,0,0,21.8,18.547,16.755,16.755,0,0,0,26.116,7.178V7.13a1.046,1.046,0,0,1,.558-.926A3.771,3.771,0,0,0,28.306,4.4,1.047,1.047,0,0,1,27.3,2.749a5.764,5.764,0,0,0,.4-.626c-.963.4-1.878.767-2.672,1.008a1.136,1.136,0,0,1-.874-.094,8.652,8.652,0,0,0-3.524-1.261,5.521,5.521,0,0,0-5.311,5.6A1.048,1.048,0,0,1,14.063,8.4C9.236,7.448,6.376,6.022,3.4,3.033A5.243,5.243,0,0,0,3.056,6.1,6.479,6.479,0,0,0,4.594,9.081a1.047,1.047,0,0,1-1.057,1.7,4.8,4.8,0,0,1-.976-.375,8.847,8.847,0,0,0,3.033,3.518,1.047,1.047,0,0,1-.67,1.908,4.708,4.708,0,0,1-1.39-.3,4.775,4.775,0,0,0,3.81,2.7,1.047,1.047,0,0,1,.311,1.957A12.583,12.583,0,0,1,2.266,21.588Zm0,0" transform="translate(0 0.001)"/></svg>